<svg aria-hidden="true" style="position: absolute; width: 0; height: 0; overflow: hidden;" version="1.1" xmlns="http://www.w3.org/2000/svg" xmlns:xlink="http://www.w3.org/1999/xlink">
  <defs>

    <symbol id="logo" viewBox="0 0 32 32">
      <path d="M0 16v-16h32v32h-32v-16zM31 16v-15h-30v30h30v-15zM15.625 26.655c1.065-0.28 0.95 0.54 1.165-8.155 0.155-6.3 0.070-7.33-0.65-7.875-0.685-0.515 0.035-0.625 4.055-0.625 4.73 0 4.93 0.045 6.345 1.46 0.965 0.97 1.46 1.97 1.46 2.97 0 3.49-1.73 5.195-5.95 5.87l-2.050 0.33v2.7c0 2.335 0.155 2.765 1.125 3.155 0.815 0.325 0.085 0.445-2.625 0.425-2.060-0.015-3.355-0.13-2.875-0.255zM24 18.5c0.72-0.72 1-1.665 1-3.39 0-3.16-1.030-4.61-3.28-4.61h-1.72v9h1.5c0.835 0 1.945-0.445 2.5-1zM8.375 21.39c1.015-0.49 1.125-0.895 1.11-4.090-0.020-3.19-0.235-3.955-2.125-7.545-1.29-2.45-2.595-4.24-3.36-4.62-1.12-0.555-0.885-0.62 2.225-0.63 2.58-0.005 3.33 0.14 2.91 0.56s-0.095 1.51 1.26 4.25c1.005 2.025 1.945 3.68 2.090 3.67 0.41-0.015 3.515-6.35 3.515-7.17 0-0.405-0.28-0.845-0.625-0.985s0.385-0.255 1.625-0.255c1.81-0.005 2.055 0.090 1.245 0.48-0.55 0.27-1.955 2.27-3.125 4.445-1.96 3.66-2.12 4.245-2.12 7.745 0 3.46 0.095 3.825 1.125 4.24 0.81 0.325 0.005 0.45-2.875 0.45-3.235 0-3.785-0.105-2.875-0.545z"></path>
    </symbol>
    
    <symbol id="menu" viewBox="0 0 29 32">
      <path d="M3.203 6.515c-0.465 0.121-0.935 0.593-1.075 1.078-0.226 0.789 0.261 1.639 1.076 1.876 0.212 0.062 1.697 0.069 11.346 0.059l11.102-0.012 0.269-0.127c1.291-0.605 1.152-2.455-0.216-2.861-0.209-0.062-1.669-0.070-11.274-0.066-7.437 0.003-11.098 0.022-11.228 0.055zM3.203 14.511c-0.465 0.121-0.935 0.593-1.075 1.078-0.226 0.789 0.261 1.639 1.076 1.876 0.212 0.061 1.697 0.069 11.346 0.058l11.102-0.012 0.269-0.126c1.291-0.606 1.152-2.456-0.216-2.861-0.209-0.062-1.669-0.070-11.274-0.066-7.437 0.003-11.098 0.021-11.228 0.055zM3.203 22.508c-0.465 0.12-0.935 0.593-1.075 1.078-0.226 0.788 0.261 1.638 1.076 1.876 0.212 0.061 1.697 0.069 11.346 0.058l11.102-0.012 0.269-0.126c1.291-0.606 1.152-2.456-0.216-2.861-0.209-0.062-1.669-0.071-11.274-0.067-7.437 0.004-11.098 0.022-11.228 0.056z"></path>
    </symbol>
    
    <symbol id="whatsapp" viewBox="0 0 32 32">
      <path d="M27.281 4.65c-2.994-3-6.975-4.65-11.219-4.65-8.738 0-15.85 7.112-15.85 15.856 0 2.794 0.731 5.525 2.119 7.925l-2.25 8.219 8.406-2.206c2.319 1.262 4.925 1.931 7.575 1.931h0.006c0 0 0 0 0 0 8.738 0 15.856-7.113 15.856-15.856 0-4.238-1.65-8.219-4.644-11.219zM16.069 29.050v0c-2.369 0-4.688-0.637-6.713-1.837l-0.481-0.288-4.987 1.306 1.331-4.863-0.313-0.5c-1.325-2.094-2.019-4.519-2.019-7.012 0-7.269 5.912-13.181 13.188-13.181 3.519 0 6.831 1.375 9.319 3.862 2.488 2.494 3.856 5.8 3.856 9.325-0.006 7.275-5.919 13.188-13.181 13.188zM23.294 19.175c-0.394-0.2-2.344-1.156-2.706-1.288s-0.625-0.2-0.894 0.2c-0.262 0.394-1.025 1.288-1.256 1.556-0.231 0.262-0.462 0.3-0.856 0.1s-1.675-0.619-3.188-1.969c-1.175-1.050-1.975-2.35-2.206-2.744s-0.025-0.613 0.175-0.806c0.181-0.175 0.394-0.463 0.594-0.694s0.262-0.394 0.394-0.662c0.131-0.262 0.069-0.494-0.031-0.694s-0.894-2.15-1.219-2.944c-0.319-0.775-0.65-0.669-0.894-0.681-0.231-0.012-0.494-0.012-0.756-0.012s-0.694 0.1-1.056 0.494c-0.363 0.394-1.387 1.356-1.387 3.306s1.419 3.831 1.619 4.1c0.2 0.262 2.794 4.269 6.769 5.981 0.944 0.406 1.681 0.65 2.256 0.837 0.95 0.3 1.813 0.256 2.494 0.156 0.762-0.113 2.344-0.956 2.675-1.881s0.331-1.719 0.231-1.881c-0.094-0.175-0.356-0.275-0.756-0.475z"></path>
    </symbol>
    
    <symbol id="telegram" viewBox="0 0 32 32">
      <path d="M13.040 24.867l0.373-5.64 10.24-9.227c0.453-0.413-0.093-0.613-0.693-0.253l-12.64 7.987-5.467-1.733c-1.173-0.333-1.187-1.147 0.267-1.733l21.293-8.213c0.973-0.44 1.907 0.24 1.533 1.733l-3.627 17.080c-0.253 1.213-0.987 1.507-2 0.947l-5.52-4.080-2.653 2.573c-0.307 0.307-0.56 0.56-1.107 0.56z"></path>
    </symbol>
    
    <symbol id="phone" viewBox="0 0 32 32">
      <path d="M22 20c-2 2-2 4-4 4s-4-2-6-4-4-4-4-6 2-2 4-4-4-8-6-8-6 6-6 6c0 4 4.109 12.109 8 16s12 8 16 8c0 0 6-4 6-6s-6-8-8-6z"></path>
    </symbol>
    
    <symbol id="mail" viewBox="0 0 28 32">
      <path d="M0 8v16c0 1.1 0.9 2 2 2h24c1.1 0 2-0.9 2-2v-16c0-1.1-0.9-2-2-2h-24c-1.1 0-2 0.9-2 2zM26 8l-12 10-12-10h24zM2 11l8 6-8 6v-12zM4 24l7-6 3 3 3-3 7 6h-20zM26 23l-8-6 8-6v12z"></path>
    </symbol>

    <symbol id="instagram" viewBox="0 0 32 32">
      <path d="M16 2.881c4.275 0 4.781 0.019 6.462 0.094 1.563 0.069 2.406 0.331 2.969 0.55 0.744 0.288 1.281 0.638 1.837 1.194 0.563 0.563 0.906 1.094 1.2 1.838 0.219 0.563 0.481 1.412 0.55 2.969 0.075 1.688 0.094 2.194 0.094 6.463s-0.019 4.781-0.094 6.463c-0.069 1.563-0.331 2.406-0.55 2.969-0.288 0.744-0.637 1.281-1.194 1.837-0.563 0.563-1.094 0.906-1.837 1.2-0.563 0.219-1.413 0.481-2.969 0.55-1.688 0.075-2.194 0.094-6.463 0.094s-4.781-0.019-6.463-0.094c-1.563-0.069-2.406-0.331-2.969-0.55-0.744-0.288-1.281-0.637-1.838-1.194-0.563-0.563-0.906-1.094-1.2-1.837-0.219-0.563-0.481-1.413-0.55-2.969-0.075-1.688-0.094-2.194-0.094-6.463s0.019-4.781 0.094-6.463c0.069-1.563 0.331-2.406 0.55-2.969 0.288-0.744 0.638-1.281 1.194-1.838 0.563-0.563 1.094-0.906 1.838-1.2 0.563-0.219 1.412-0.481 2.969-0.55 1.681-0.075 2.188-0.094 6.463-0.094zM16 0c-4.344 0-4.887 0.019-6.594 0.094-1.7 0.075-2.869 0.35-3.881 0.744-1.056 0.412-1.95 0.956-2.837 1.85-0.894 0.888-1.438 1.781-1.85 2.831-0.394 1.019-0.669 2.181-0.744 3.881-0.075 1.713-0.094 2.256-0.094 6.6s0.019 4.887 0.094 6.594c0.075 1.7 0.35 2.869 0.744 3.881 0.413 1.056 0.956 1.95 1.85 2.837 0.887 0.887 1.781 1.438 2.831 1.844 1.019 0.394 2.181 0.669 3.881 0.744 1.706 0.075 2.25 0.094 6.594 0.094s4.888-0.019 6.594-0.094c1.7-0.075 2.869-0.35 3.881-0.744 1.050-0.406 1.944-0.956 2.831-1.844s1.438-1.781 1.844-2.831c0.394-1.019 0.669-2.181 0.744-3.881 0.075-1.706 0.094-2.25 0.094-6.594s-0.019-4.887-0.094-6.594c-0.075-1.7-0.35-2.869-0.744-3.881-0.394-1.063-0.938-1.956-1.831-2.844-0.887-0.887-1.781-1.438-2.831-1.844-1.019-0.394-2.181-0.669-3.881-0.744-1.712-0.081-2.256-0.1-6.6-0.1v0z"></path>
      <path d="M16 7.781c-4.537 0-8.219 3.681-8.219 8.219s3.681 8.219 8.219 8.219 8.219-3.681 8.219-8.219c0-4.537-3.681-8.219-8.219-8.219zM16 21.331c-2.944 0-5.331-2.387-5.331-5.331s2.387-5.331 5.331-5.331c2.944 0 5.331 2.387 5.331 5.331s-2.387 5.331-5.331 5.331z"></path>
      <path d="M26.462 7.456c0 1.060-0.859 1.919-1.919 1.919s-1.919-0.859-1.919-1.919c0-1.060 0.859-1.919 1.919-1.919s1.919 0.859 1.919 1.919z"></path>
    </symbol>

  </defs>
</svg>
